<mxfile host="app.diagrams.net" modified="2023-12-05T13:12:40.423Z" agent="Mozilla/5.0 (Windows NT 10.0; Win64; x64; rv:120.0) Gecko/20100101 Firefox/120.0" version="22.1.5" etag="X75rYnJrOjiI5p5gsQWv" type="github">
  <diagram name="Page-1" id="AFcdK6ilj9D27qYCjFH3">
    <mxGraphModel>
      <root>
        <mxCell id="0" />
        <mxCell id="1" parent="0" />
      </root>
    </mxGraphModel>
  </diagram>
</mxfile>
